<?xml version="1.0" encoding="utf-8"?>
<!-- Generator: Adobe Illustrator 23.1.1, SVG Export Plug-In . SVG Version: 6.00 Build 0)  -->
<svg version="1.1" id="Ebene_1" xmlns="http://www.w3.org/2000/svg" xmlns:xlink="http://www.w3.org/1999/xlink" x="0px" y="0px"
	 viewBox="0 0 171.7 31" style="enable-background:new 0 0 171.7 31;" xml:space="preserve">
<g>
	<path d="M20.4,8.6c0,2.7-1,4.7-3,6.1c-2,1.4-4.9,2.1-8.6,2.1c-0.2,0-0.5,0-0.8,0c-0.3,0-0.5,0-0.6,0c-0.6,0-1,0.1-1.1,0.3
		c-0.1,0.2-0.2,0.8-0.2,1.8v0.3c0,2.5,0,4.4,0.1,5.5c0.1,1.2,0.2,1.9,0.4,2.1c0.1,0.2,0.5,0.3,1.3,0.6C8.6,27.8,9,28.1,9,28.4
		c0,0.5-0.4,0.8-1.1,1c-0.7,0.2-1.9,0.3-3.5,0.3c-1.6,0-2.7-0.1-3.4-0.3c-0.7-0.2-1-0.6-1-1c0-0.4,0.4-0.7,1.1-0.9
		c0.7-0.2,1.1-0.4,1.2-0.6c0.2-0.3,0.3-1.2,0.4-2.8c0.1-1.6,0.1-4.5,0.1-8.7c0-4.2,0-7.1-0.1-8.7C2.7,5.2,2.5,4.3,2.3,4
		C2.2,3.9,1.8,3.7,1.1,3.4C0.4,3.2,0,2.9,0,2.6C0,2.3,0.1,2,0.4,1.8C0.6,1.6,1,1.5,1.4,1.4h0.2c2.7-0.2,5.9-0.2,9.6-0.2
		c2.9,0,5.2,0.7,6.8,2C19.6,4.4,20.4,6.3,20.4,8.6z M6.1,14.8C6.6,14.9,7,15,7.4,15c0.4,0,0.8,0.1,1.1,0.1c2.7,0,4.7-0.5,6-1.5
		c1.3-1,2-2.5,2-4.6c0-2-0.6-3.4-1.7-4.4c-1.1-1-2.8-1.4-5.1-1.4C8.3,3.2,7.4,3.2,7,3.3C6.7,3.4,6.5,3.6,6.4,3.9
		C6.3,4.2,6.3,5.3,6.2,7.3C6.2,9.2,6.1,11.7,6.1,14.8z"/>
	<path d="M27.9,13.5c0.8-1.2,1.7-2.2,2.6-2.9c0.9-0.7,1.8-1,2.6-1c0.7,0,1.3,0.2,1.7,0.7c0.4,0.4,0.7,1,0.7,1.7
		c0,0.6-0.2,1.2-0.6,1.6c-0.4,0.4-0.9,0.6-1.5,0.6c-0.5,0-1-0.2-1.3-0.5c-0.4-0.3-0.6-0.8-0.7-1.4c-1.3,0.4-2.3,1.1-2.8,2
		c-0.5,0.9-0.8,2.9-0.8,6c0,2.3,0,4,0.1,5c0.1,1,0.2,1.6,0.3,1.8c0.2,0.3,0.6,0.5,1.3,0.6c0.2,0,0.4,0.1,0.5,0.1
		c0.3,0.1,0.5,0.1,0.7,0.3c0.2,0.1,0.2,0.3,0.2,0.5c0,0.4-0.4,0.7-1.1,0.9c-0.7,0.2-1.8,0.3-3.4,0.3c-1.4,0-2.3-0.1-2.9-0.3
		c-0.6-0.2-0.9-0.5-0.9-0.9c0-0.3,0.3-0.6,0.8-0.7c0.5-0.2,0.9-0.3,1-0.4c0.2-0.2,0.3-0.6,0.4-1.2c0.1-0.6,0.1-1.8,0.1-3.4
		c0-2.2,0-4-0.1-5.4c-0.1-1.4-0.1-2.5-0.3-3.2c-0.1-0.5-0.2-0.9-0.4-1.1c-0.2-0.2-0.6-0.3-1.2-0.3h-0.4c-0.2,0-0.4-0.1-0.5-0.2
		c-0.2-0.2-0.2-0.3-0.2-0.6c0-0.2,0.1-0.5,0.3-0.7c0.2-0.2,0.5-0.4,1-0.7c0.6-0.3,1.3-0.6,1.9-0.8c0.6-0.2,1-0.3,1.3-0.3
		c0.3,0,0.6,0.3,0.8,0.8c0.2,0.5,0.3,1.5,0.5,2.9L27.9,13.5z"/>
	<path d="M36.3,20.2c0-3,1-5.5,2.9-7.5s4.4-3,7.3-3c2.8,0,5.1,0.9,6.9,2.8c1.8,1.8,2.7,4.2,2.7,7c0,3-1,5.6-2.9,7.6
		c-1.9,2-4.3,3-7.2,3c-2.8,0-5.1-1-6.9-2.9C37.2,25.4,36.3,23,36.3,20.2z M39.7,19.1c0,2.7,0.6,4.9,1.9,6.6c1.3,1.8,2.9,2.6,4.8,2.6
		c1.9,0,3.5-0.7,4.6-2.1c1.1-1.4,1.7-3.3,1.7-5.8c0-2.6-0.7-4.7-2-6.4c-1.3-1.7-3-2.6-5-2.6c-1.7,0-3.2,0.7-4.3,2.1
		C40.3,15,39.7,16.8,39.7,19.1z"/>
	<path d="M73.9,6.9c0-1.1-0.1-1.8-0.2-2.3c-0.1-0.4-0.3-0.7-0.6-0.8c-0.1,0-0.3-0.1-0.7-0.1c-0.7-0.1-1.1-0.3-1.1-0.8
		c0-0.3,0.1-0.5,0.4-0.7c0.2-0.2,0.6-0.4,1.2-0.6c0.7-0.3,1.4-0.5,2-0.6c0.6-0.2,1.1-0.2,1.4-0.2c0.4,0,0.6,0.1,0.7,0.3
		c0.1,0.2,0.2,0.6,0.2,1.1c0,0.5-0.1,2.4-0.2,5.5c-0.1,3.2-0.2,6.1-0.2,8.7c0,3.7,0,6.3,0.1,7.8c0.1,1.5,0.2,2.3,0.4,2.6
		c0.1,0.2,0.5,0.3,1.2,0.4c0.7,0.1,1,0.4,1,0.8S79,29,77.9,29.5c-1.1,0.5-2.1,0.7-3,0.7c-0.4,0-0.6-0.1-0.7-0.3
		c-0.1-0.2-0.2-0.6-0.2-1.1v-0.6c0-0.2,0-0.3,0-0.4s-0.1-0.1-0.2-0.1c-0.2,0-0.5,0.2-0.9,0.5c-0.2,0.1-0.3,0.2-0.4,0.3
		c-0.8,0.6-1.6,1-2.4,1.2c-0.8,0.2-1.7,0.4-2.7,0.4c-2.5,0-4.6-0.9-6.2-2.7c-1.6-1.8-2.4-4.1-2.4-7c0-3,0.9-5.5,2.7-7.5
		c1.8-2,4.1-3,6.7-3c1.7,0,3.3,0.4,4.8,1.3c0.2,0.1,0.4,0.2,0.4,0.2c0.1,0,0.2-0.1,0.3-0.3c0.1-0.2,0.1-0.5,0.1-0.8V6.9z M73.9,16.8
		c0-1.7-0.4-2.9-1.3-3.8c-0.9-0.9-2.1-1.3-3.8-1.3c-1.9,0-3.5,0.8-4.7,2.3c-1.2,1.5-1.8,3.6-1.8,6.1c0,2.3,0.5,4.2,1.6,5.6
		c1.1,1.4,2.5,2.1,4.3,2.1c0.8,0,1.7-0.2,2.5-0.5c0.8-0.3,1.6-0.8,2.2-1.3c0.3-0.3,0.6-0.6,0.7-0.9c0.1-0.3,0.2-0.9,0.2-1.6v-0.5
		V16.8z"/>
	<path d="M96.4,28.7v-1.6c0-0.2,0-0.4-0.1-0.4c0-0.1-0.1-0.1-0.2-0.1c-0.2,0-0.4,0.2-0.8,0.7c-0.3,0.4-0.5,0.7-0.7,0.9
		c-0.6,0.7-1.3,1.2-2.1,1.5c-0.8,0.3-1.7,0.5-2.7,0.5c-2.4,0-4.1-0.7-5.2-2.2c-1.1-1.5-1.6-3.8-1.6-7v-3.3c0-1.8,0-3.1-0.1-3.7
		c-0.1-0.6-0.2-1-0.5-1.1c-0.1-0.1-0.4-0.1-1.1-0.2c-0.6-0.1-1-0.4-1-0.8c0-0.2,0.1-0.5,0.4-0.7c0.2-0.2,0.6-0.4,1.1-0.6
		c0.7-0.3,1.3-0.5,2-0.6c0.7-0.2,1.1-0.2,1.4-0.2c0.4,0,0.7,0.1,0.8,0.3c0.1,0.2,0.2,0.6,0.2,1.1c0,0.7,0,1.8-0.1,3.4
		C86.1,16,86,17.2,86,18.2v1.1c0,1.8,0,3.2,0.1,4c0.1,0.8,0.2,1.5,0.4,2.1c0.3,0.8,0.8,1.4,1.5,1.8c0.7,0.4,1.5,0.7,2.4,0.7
		c0.9,0,1.9-0.2,2.7-0.7c0.9-0.5,1.6-1.1,2.3-2c0.3-0.4,0.5-0.9,0.7-1.5c0.1-0.6,0.2-1.5,0.2-2.7v-2.2v-1.1c0-1.8,0-3.1-0.1-3.7
		c-0.1-0.6-0.2-1-0.5-1.2c-0.1-0.1-0.4-0.1-1-0.2c-0.6-0.1-0.9-0.4-0.9-0.8c0-0.2,0.1-0.5,0.3-0.7c0.2-0.2,0.6-0.4,1.1-0.6
		c0.6-0.3,1.3-0.5,2-0.6c0.7-0.2,1.1-0.2,1.4-0.2c0.4,0,0.6,0.1,0.8,0.3c0.1,0.2,0.2,0.6,0.2,1.1c0,0.8,0,2.1-0.1,3.7
		c-0.1,1.7-0.1,3-0.1,3.8c0,2.8,0,4.9,0.1,6c0.1,1.2,0.2,1.9,0.4,2.1c0.1,0.2,0.5,0.3,1.2,0.4c0.7,0.1,1,0.4,1,0.8
		c0,0.4-0.5,0.9-1.6,1.4c-1.1,0.5-2.1,0.7-3.1,0.7c-0.3,0-0.6-0.1-0.7-0.3S96.4,29.3,96.4,28.7z"/>
	<path d="M119.8,16.3c-0.4,0-0.8-0.1-1.1-0.4c-0.3-0.3-0.7-0.8-1-1.6c-0.5-1-1-1.7-1.6-2.1c-0.6-0.4-1.3-0.7-2.1-0.7
		c-2,0-3.6,0.7-4.7,2.1c-1.1,1.4-1.7,3.3-1.7,5.8c0,2.4,0.7,4.4,2,6c1.3,1.6,3,2.4,5,2.4c0.6,0,1.3-0.1,1.9-0.3
		c0.6-0.2,1.3-0.5,1.9-1c0.3-0.2,0.8-0.6,1.3-1.2c0.6-0.6,1-0.8,1.3-0.8c0.2,0,0.4,0.1,0.5,0.2c0.1,0.1,0.2,0.3,0.2,0.6
		c0,0.3-0.1,0.6-0.3,0.9c-0.2,0.4-0.5,0.7-0.8,1.1c-0.9,0.9-1.9,1.6-3.1,2.1c-1.2,0.5-2.4,0.7-3.8,0.7c-2.8,0-5.1-0.9-6.9-2.8
		c-1.8-1.8-2.7-4.2-2.7-7.2c0-3,0.9-5.5,2.8-7.5c1.9-2,4.2-3,7-3c2,0,3.8,0.5,5.3,1.5c1.5,1,2.2,2.1,2.2,3.3c0,0.5-0.2,1-0.5,1.3
		C120.7,16.2,120.3,16.3,119.8,16.3z"/>
	<path d="M125.2,12.5h-1.6c-0.2,0-0.3,0-0.4-0.1c-0.1-0.1-0.2-0.2-0.2-0.3v-0.5c0-0.4,0.5-1.1,1.4-2.1c0.3-0.3,0.5-0.5,0.6-0.7
		c0.2-0.2,0.4-0.4,0.6-0.7c0.9-1.1,1.6-1.6,1.9-1.6c0.2,0,0.4,0.1,0.5,0.2c0.1,0.1,0.2,0.2,0.2,0.4v3.5h3.9c0.3,0,0.4,0.1,0.5,0.2
		c0.1,0.1,0.2,0.3,0.2,0.6v0.5c0,0.3-0.1,0.4-0.2,0.6c-0.1,0.1-0.3,0.2-0.5,0.2h-3.5c-0.1,0-0.2,0.1-0.3,0.2
		c-0.1,0.1-0.1,0.3-0.1,0.5v10.5c0,1.6,0.2,2.7,0.5,3.2s0.9,0.8,1.6,0.8c0.4,0,0.8-0.1,1.3-0.3c0.5-0.2,0.8-0.3,0.9-0.3
		c0.2,0,0.4,0.1,0.5,0.2c0.1,0.1,0.2,0.3,0.2,0.5c0,0.6-0.4,1.1-1.3,1.6c-0.8,0.5-1.8,0.8-2.8,0.8c-1.4,0-2.4-0.4-3-1.3
		c-0.6-0.8-0.9-2.3-0.9-4.3V12.5z"/>
	<path d="M135,20.2c0-3,1-5.5,2.9-7.5c2-2,4.4-3,7.3-3c2.8,0,5.1,0.9,6.9,2.8c1.8,1.8,2.7,4.2,2.7,7c0,3-1,5.6-2.9,7.6
		c-1.9,2-4.3,3-7.2,3c-2.8,0-5.1-1-6.9-2.9C135.9,25.4,135,23,135,20.2z M138.4,19.1c0,2.7,0.6,4.9,1.9,6.6s2.9,2.6,4.8,2.6
		c1.9,0,3.5-0.7,4.6-2.1c1.1-1.4,1.7-3.3,1.7-5.8c0-2.6-0.7-4.7-2-6.4c-1.3-1.7-3-2.6-5-2.6c-1.7,0-3.2,0.7-4.3,2.1
		C139,15,138.4,16.8,138.4,19.1z"/>
	<path d="M166.3,10.1c0.3-0.2,0.5-0.3,0.6-0.3c0.2-0.1,0.3-0.1,0.4-0.1c0.5,0,0.9,0.4,1.4,1.3c0.5,0.9,0.7,1.8,0.7,2.8
		c0,0.4-0.1,0.8-0.3,1c-0.2,0.2-0.4,0.4-0.7,0.4c-0.4,0-0.8-0.4-1.2-1.1c-0.1-0.2-0.1-0.3-0.2-0.4c-0.4-0.9-0.9-1.6-1.4-1.9
		c-0.5-0.3-1.2-0.5-2-0.5c-0.9,0-1.7,0.3-2.3,0.8c-0.6,0.6-0.9,1.3-0.9,2.1c0,1.5,1.6,2.9,4.8,4.2c0.6,0.3,1.1,0.5,1.5,0.6
		c1.1,0.5,2,1.2,2.6,2.1c0.6,0.9,0.9,1.9,0.9,3.1c0,1.7-0.6,3.2-1.9,4.3c-1.3,1.1-2.9,1.6-4.9,1.6c-0.6,0-1.3-0.1-2.2-0.3
		c-0.8-0.2-1.3-0.3-1.5-0.3c-0.2,0-0.4,0.1-0.7,0.2c-0.3,0.1-0.5,0.2-0.6,0.2c-0.4,0-0.7-0.5-1.1-1.4c-0.4-0.9-0.6-1.9-0.6-2.9
		c0-0.4,0.1-0.7,0.3-0.9c0.2-0.2,0.5-0.4,0.8-0.4c0.4,0,0.8,0.4,1.2,1.2c0.2,0.3,0.3,0.5,0.4,0.7c0.4,0.7,0.9,1.2,1.6,1.6
		c0.7,0.4,1.4,0.6,2.3,0.6c1.1,0,2.1-0.3,2.8-0.9c0.7-0.6,1.1-1.4,1.1-2.4c0-0.8-0.2-1.4-0.6-2c-0.4-0.5-1.1-1-2-1.5
		c-0.3-0.2-0.9-0.4-1.6-0.7c-1.9-0.8-3.3-1.5-4.2-2.4c-0.5-0.5-0.9-1-1.1-1.6c-0.3-0.6-0.4-1.3-0.4-2c0-1.6,0.6-2.9,1.8-3.9
		c1.2-1,2.7-1.5,4.5-1.5c0.4,0,0.8,0,1.3,0.1C165.3,9.8,165.8,9.9,166.3,10.1z"/>
</g>
</svg>
